<svg width="25" height="25" viewBox="0 0 25 25" fill="none" xmlns="http://www.w3.org/2000/svg">
<path d="M20.1068 18.9055C20.1068 19.7865 19.3908 20.5295 18.5098 20.5295H5.73085C4.84985 20.5295 4.13385 19.7865 4.13385 18.9055V6.12646C4.13385 5.24546 4.84985 4.55545 5.73085 4.55545H12.6528C12.9467 4.55545 13.1848 4.31727 13.1848 4.02346C13.1848 3.72964 12.9467 3.49146 12.6528 3.49146H5.73085C4.26285 3.49146 3.06885 4.65945 3.06885 6.12745V18.9055C3.06885 20.3735 4.26285 21.5935 5.73085 21.5935H18.5088C19.9768 21.5935 21.1708 20.3725 21.1708 18.9055V12.0099C21.1708 11.7158 20.9325 11.4775 20.6384 11.4775C20.3443 11.4775 20.1059 11.7159 20.1059 12.01L20.1068 18.9055Z" fill="#2045A4"/>
<path d="M21.3069 3.32946C20.5029 2.52446 19.0999 2.52446 18.2949 3.32946L11.1519 10.4725C11.0839 10.5405 11.0349 10.6265 11.0119 10.7195L10.2599 13.7305C10.2149 13.9115 10.2679 14.1035 10.3999 14.2365C10.5009 14.3375 10.6369 14.3925 10.7759 14.3925C10.8189 14.3925 10.8619 14.3875 10.9049 14.3765L13.9169 13.6235C14.0109 13.6005 14.0959 13.5515 14.1639 13.4835L21.3069 6.34046C21.7089 5.93846 21.9309 5.40346 21.9309 4.83446C21.9309 4.26546 21.7099 3.73146 21.3069 3.32946ZM13.5159 12.6265L11.5079 13.1285L12.0099 11.1205L17.9189 5.21146L19.4249 6.71746L13.5159 12.6265ZM20.5539 5.58746L20.1779 5.96346L18.6719 4.45746L19.0479 4.08146C19.4499 3.67946 20.1519 3.67946 20.5539 4.08146C20.7549 4.28246 20.8659 4.54946 20.8659 4.83446C20.8659 5.11946 20.7549 5.38646 20.5539 5.58746Z" fill="#2045A4"/>
</svg>
